<svg width="491" height="50" viewBox="0 0 491 50" xmlns="http://www.w3.org/2000/svg"><path d="M269.2334 2.1172c-.9785 0-1.8208.2373-2.5269.7119-.706.4746-1.2319 1.1133-1.5776 1.916-.3457.8028-.5185 1.7256-.5185 2.7686 0 .7793.0937 1.4897.2812 2.1313s.4688 1.2041.8438 1.6875c.375.4834.8627.8584 1.4633 1.125.6006.2666 1.2906.4 2.0699.4 1.002 0 2.039-.2608 3.1113-.7823l.2549 1.292c-.873.5508-2.0537.8262-3.542.8262-.9785 0-1.856-.1626-2.6324-.4878-.7763-.3252-1.418-.7852-1.9248-1.38-.5068-.5946-.892-1.3036-1.1557-2.1269-.2637-.8232-.3955-1.7387-.3955-2.7466 0-.9726.1435-1.869.4306-2.6894.2871-.8203.693-1.525 1.2173-2.1138.5244-.5888 1.1792-1.0473 1.9644-1.3755.7851-.328 1.6582-.4922 2.6191-.4922 1.459 0 2.6895.3223 3.6914.9668l-.5976 1.2393c-.961-.58-1.9864-.8701-3.0762-.8701Zm10.916 4.0254c-.4277-.5156-1.0166-.7735-1.7666-.7735s-1.3623.2652-1.8369.7955c-.4746.5302-.753 1.2553-.835 2.1752h5.089c0-.955-.2169-1.6875-.6505-2.1972Zm-1.4765 8.0595c-1.4004 0-2.5035-.4453-3.3091-1.3359-.8057-.8906-1.2085-2.1094-1.2085-3.6562 0-1.4942.3896-2.7056 1.169-3.6343.7792-.9287 1.8046-1.4019 3.076-1.4195 1.1954 0 2.1432.4087 2.8434 1.2261.7001.8174 1.0502 1.9087 1.0502 3.274 0 .0703-.0014.1992-.0043.3867-.003.1875-.0044.3222-.0044.4043h-6.6182c.0176 1.0957.3003 1.9497.8481 2.562.5479.6123 1.2847.9184 2.2105.9184 1.0195 0 2.042-.2695 3.0674-.8086l.2285 1.1866c-.9785.5976-2.0947.8964-3.3486.8964ZM284.333 14V4.3584h1.2305l.1845 1.3799c.381-.4746.857-.857 1.4283-1.147.5713-.29 1.188-.435 1.85-.435 1.1133 0 1.9366.312 2.4698.936.5332.624.7998 1.5835.7998 2.8784V14h-1.4678c0-3.8672-.0029-5.9385-.0088-6.2139-.0234-.8203-.189-1.4209-.4965-1.8017-.3077-.3809-.8218-.5713-1.5425-.5713-.7559 0-1.3858.1816-1.8897.545-.5039.3632-.832.8349-.9844 1.415-.0585.3925-.0878.8437-.0878 1.3535V14h-1.4854Zm13.4824.1758c-.9492 0-1.623-.2315-2.0215-.6944-.3984-.4628-.6093-1.21-.6328-2.2412v-5.792h-1.4326l.0615-.9668 1.3623-.123.501-2.206.9668-.0352v2.2412h2.6807v1.0898H296.62v5.5284c0 .7324.1113 1.248.334 1.5468.2227.2989.6035.4483 1.1426.4483.1933 0 .6123-.0469 1.2568-.1406l.0615 1.1601c-.6972.123-1.2304.1846-1.5996.1846Zm7.4883-9.9053c.2637 0 .504.0176.7207.0527l-.0527 1.3536c-.2696-.047-.504-.0704-.7031-.0704-.8204 0-1.4869.2857-1.9996.857-.5127.5713-.769 1.2788-.769 2.1225V14h-1.4678c-.0058-5.918-.0088-9.1318-.0088-9.6416h1.2217l.1406 1.7314c.334-.5449.7588-.9843 1.2745-1.3183.5156-.334 1.0634-.501 1.6435-.501Zm7.7871 1.872c-.4277-.5155-1.0166-.7734-1.7666-.7734s-1.3623.2652-1.8369.7955c-.4746.5302-.753 1.2553-.835 2.1752h5.089c0-.955-.2169-1.6875-.6505-2.1972Zm-1.4765 8.0596c-1.4004 0-2.5035-.4453-3.3091-1.3359-.8057-.8906-1.2085-2.1094-1.2085-3.6562 0-1.4942.3896-2.7056 1.169-3.6343.7792-.9287 1.8046-1.4019 3.0761-1.4195 1.1953 0 2.143.4087 2.8433 1.2261.7002.8174 1.0503 1.9087 1.0503 3.274 0 .0703-.0015.1992-.0044.3867-.003.1875-.0044.3222-.0044.4043h-6.6182c.0176 1.0957.3003 1.9497.8481 2.562.5479.6123 1.2847.9184 2.2105.9184 1.0195 0 2.042-.2695 3.0674-.8086l.2285 1.1866c-.9785.5976-2.0947.8964-3.3486.8964Zm13.913-1.2656c.9668 0 1.686-.3105 2.1578-.9316.4716-.6211.7075-1.5088.7075-2.6631 0-1.3008-.227-2.2808-.6812-2.94-.454-.6591-1.188-.9887-2.2016-.9887-.4512 0-.8496.0967-1.1953.29-.3458.1934-.624.463-.835.8086-.211.3457-.3706.7427-.479 1.191-.1084.4482-.1626.9389-.1626 1.4721 0 .75.0923 1.4004.2768 1.9512.1846.5508.482.9902.8921 1.3183.4102.3282.917.4922 1.5205.4922Zm2.8916-.334c-.3164.4864-.7382.873-1.2656 1.1602-.5273.2871-1.1162.4307-1.7666.4307-1.2715 0-2.2676-.4527-2.9883-1.358-.7207-.9052-1.081-2.1372-1.081-3.6958 0-1.4882.3662-2.6909 1.0986-3.6079.7324-.917 1.7139-1.3754 2.9444-1.3754.6386 0 1.2407.1391 1.8061.4174.5654.2784.9888.6519 1.27 1.1206l-.0263-.835V.6144l1.4502-.088V14h-1.2481l-.1934-1.3975Zm9.545-6.46c-.4278-.5155-1.0166-.7734-1.7666-.7734s-1.3623.2652-1.837.7955c-.4746.5302-.7529 1.2553-.835 2.1752h5.089c0-.955-.2168-1.6875-.6504-2.1972Zm-1.4766 8.0596c-1.4004 0-2.5034-.4453-3.309-1.3359-.8057-.8906-1.2086-2.1094-1.2086-3.6562 0-1.4942.3897-2.7056 1.169-3.6343.7793-.9287 1.8047-1.4019 3.0761-1.4195 1.1954 0 2.1431.4087 2.8433 1.2261.7002.8174 1.0503 1.9087 1.0503 3.274 0 .0703-.0015.1992-.0044.3867-.003.1875-.0044.3222-.0044.4043h-6.6182c.0176 1.0957.3003 1.9497.8482 2.562.5478.6123 1.2847.9184 2.2104.9184 1.0196 0 2.042-.2695 3.0674-.8086l.2285 1.1866c-.9785.5976-2.0947.8964-3.3486.8964Zm13.0254 0c-.6563 0-1.2612-.0703-1.815-.2109-.5537-.1406-1.0034-.3223-1.349-.545l.1845-1.2392c.9785.5215 1.9395.7823 2.8828.7823 1.4297 0 2.165-.504 2.206-1.5118 0-.4277-.1523-.7646-.457-1.0107-.3046-.2461-.9023-.5215-1.793-.8262l-.7294-.2549c-.8438-.2812-1.4458-.6298-1.8062-1.0459-.3603-.416-.5434-.9345-.5493-1.5556 0-.7559.3032-1.3828.9097-1.8809.6064-.498 1.437-.747 2.4917-.747 1.0898 0 2.083.2109 2.9795.6328l-.4307 1.125c-.9082-.375-1.7578-.5625-2.5488-.5625-.6153 0-1.0972.1215-1.4458.3647-.3487.2432-.523.5845-.523 1.024 0 .375.126.662.378.8613.252.1992.7558.4277 1.5117.6855.1933.0703.4365.1524.7295.2461.9726.3164 1.6611.69 2.0654 1.1206.4043.4307.6064 1.0122.6064 1.7446-.0117.8907-.331 1.5806-.958 2.0699-.627.4892-1.4736.7338-2.54.7338Zm11.0566-8.0595c-.4277-.5156-1.0166-.7735-1.7666-.7735s-1.3623.2652-1.8369.7955c-.4746.5302-.753 1.2553-.835 2.1752h5.089c0-.955-.2169-1.6875-.6505-2.1972Zm-1.4765 8.0595c-1.4004 0-2.5034-.4453-3.3091-1.3359-.8057-.8906-1.2085-2.1094-1.2085-3.6562 0-1.4942.3896-2.7056 1.169-3.6343.7792-.9287 1.8046-1.4019 3.0761-1.4195 1.1953 0 2.143.4087 2.8433 1.2261.7002.8174 1.0503 1.9087 1.0503 3.274 0 .0703-.0015.1992-.0044.3867-.003.1875-.0044.3222-.0044.4043h-6.6182c.0176 1.0957.3003 1.9497.8482 2.562.5478.6123 1.2846.9184 2.2104.9184 1.0195 0 2.042-.2695 3.0674-.8086l.2285 1.1866c-.9785.5976-2.0947.8964-3.3486.8964Zm9.9843-9.9316c.2637 0 .504.0176.7208.0527l-.0528 1.3536c-.2695-.047-.5039-.0704-.7031-.0704-.8203 0-1.4868.2857-1.9995.857-.5127.5713-.769 1.2788-.769 2.1225V14h-1.4678c-.0059-5.918-.0088-9.1318-.0088-9.6416h1.2217l.1406 1.7314c.334-.5449.7588-.9843 1.2744-1.3183.5156-.334 1.0635-.501 1.6435-.501ZM373.7793 14l-3.7354-9.6416h1.5733l2.127 5.7305.8788 2.4433c.1993-.627.4747-1.4355.8262-2.4258.4453-1.248 1.1367-3.164 2.0742-5.748h1.5645L375.3789 14h-1.5996Zm8.3232-9.6416V14h-1.4765V4.3584h1.4765Zm0-3.5068v1.7402h-1.4765V.8516h1.4765Zm6.838 13.3505c-1.418 0-2.527-.46-3.3267-1.3798-.7998-.92-1.1997-2.124-1.1997-3.6123.0058-1.5.4145-2.7173 1.226-3.6519.8116-.9346 1.9234-1.4018 3.3355-1.4018.498 0 .98.0615 1.4458.1845s.8335.2842 1.103.4834l-.4043 1.1426c-.6855-.3691-1.4092-.5537-2.1709-.5537-.9316 0-1.6684.3398-2.2104 1.0195-.542.6797-.813 1.6084-.813 2.7862 0 1.1484.268 2.058.8042 2.729.5361.6709 1.2788 1.0063 2.228 1.0063.7559 0 1.5293-.205 2.3203-.6152l.1846 1.169c-.6387.4628-1.4795.6942-2.5225.6942Zm9.9843-8.0595c-.4277-.5156-1.0166-.7735-1.7666-.7735s-1.3623.2652-1.837.7955c-.4745.5302-.7528 1.2553-.8349 2.1752h5.0889c0-.955-.2168-1.6875-.6504-2.1972Zm-1.4766 8.0595c-1.4003 0-2.5034-.4453-3.309-1.3359-.8057-.8906-1.2085-2.1094-1.2085-3.6562 0-1.4942.3896-2.7056 1.169-3.6343.7792-.9287 1.8046-1.4019 3.076-1.4195 1.1954 0 2.1431.4087 2.8433 1.2261.7002.8174 1.0503 1.9087 1.0503 3.274 0 .0703-.0014.1992-.0044.3867a29.398 29.398 0 0 0-.0044.4043h-6.6181c.0176 1.0957.3003 1.9497.8481 2.562.5479.6123 1.2847.9184 2.2105.9184 1.0195 0 2.042-.2695 3.0674-.8086l.2285 1.1866c-.9785.5976-2.0948.8964-3.3487.8964Zm8.5342 0c-.6562 0-1.2612-.0703-1.815-.2109-.5536-.1406-1.0033-.3223-1.349-.545l.1845-1.2392c.9785.5215 1.9395.7823 2.8828.7823 1.4297 0 2.165-.504 2.2061-1.5118 0-.4277-.1523-.7646-.457-1.0107-.3047-.2461-.9024-.5215-1.793-.8262l-.7295-.2549c-.8437-.2812-1.4458-.6298-1.8061-1.0459-.3604-.416-.5435-.9345-.5494-1.5556 0-.7559.3033-1.3828.9097-1.8809.6064-.498 1.437-.747 2.4917-.747 1.0898 0 2.083.2109 2.9795.6328l-.4307 1.125c-.9082-.375-1.7578-.5625-2.5488-.5625-.6152 0-1.0972.1215-1.4458.3647-.3486.2432-.523.5845-.523 1.024 0 .375.126.662.378.8613.252.1992.7558.4277 1.5117.6855.1934.0703.4365.1524.7295.2461.9726.3164 1.6611.69 2.0654 1.1206.4043.4307.6065 1.0122.6065 1.7446-.0118.8907-.331 1.5806-.958 2.0699-.627.4892-1.4737.7338-2.54.7338Zm12.8672 0c-.6562 0-1.2612-.0703-1.815-.2109-.5536-.1406-1.0034-.3223-1.349-.545l.1845-1.2392c.9785.5215 1.9395.7823 2.8828.7823 1.4297 0 2.165-.504 2.206-1.5118 0-.4277-.1523-.7646-.457-1.0107-.3046-.2461-.9023-.5215-1.793-.8262l-.7294-.2549c-.8438-.2812-1.4458-.6298-1.8062-1.0459-.3603-.416-.5434-.9345-.5493-1.5556 0-.7559.3032-1.3828.9097-1.8809.6064-.498 1.437-.747 2.4917-.747 1.0898 0 2.083.2109 2.9795.6328l-.4307 1.125c-.9082-.375-1.7578-.5625-2.5488-.5625-.6152 0-1.0972.1215-1.4458.3647-.3486.2432-.523.5845-.523 1.024 0 .375.126.662.378.8613.252.1992.7558.4277 1.5117.6855.1933.0703.4365.1524.7295.2461.9726.3164 1.6611.69 2.0654 1.1206.4043.4307.6065 1.0122.6065 1.7446-.0118.8907-.3311 1.5806-.958 2.0699-.627.4892-1.4737.7338-2.54.7338Zm9.58 0c-1.4179 0-2.5268-.46-3.3266-1.3798-.7998-.92-1.1997-2.124-1.1997-3.6123.0059-1.5.4146-2.7173 1.226-3.6519.8116-.9346 1.9234-1.4018 3.3355-1.4018.498 0 .98.0615 1.4458.1845.4659.123.8335.2842 1.103.4834l-.4042 1.1426c-.6856-.3691-1.4092-.5537-2.171-.5537-.9316 0-1.6684.3398-2.2104 1.0195-.542.6797-.813 1.6084-.813 2.7862 0 1.1484.2681 2.058.8042 2.729.5362.6709 1.2788 1.0063 2.228 1.0063.756 0 1.5294-.205 2.3204-.6152l.1845 1.169c-.6386.4628-1.4794.6942-2.5224.6942Zm5.502-5.001c0 1.1426.2535 2.0582.7603 2.7467.5068.6884 1.2466 1.0327 2.2192 1.0327.961 0 1.686-.3428 2.1753-1.0284.4893-.6855.734-1.6083.734-2.7685 0-1.1777-.2418-2.105-.7252-2.7817-.4834-.6768-1.2202-1.0152-2.2104-1.0152-.961 0-1.6934.3457-2.1973 1.0371-.504.6914-.7559 1.6172-.7559 2.7774Zm7.4092-.0263c0 1.4941-.3984 2.7056-1.1953 3.6343-.7969.9287-1.8984 1.393-3.3047 1.393-1.3535 0-2.4302-.4687-3.23-1.4062-.7998-.9375-1.1997-2.1416-1.1997-3.6123 0-1.5.4014-2.7129 1.2041-3.6387.8028-.9258 1.9043-1.3887 3.3047-1.3887 1.377 0 2.458.4644 3.2432 1.3931.7851.9287 1.1777 2.1372 1.1777 3.6255Zm4.667 5.001c-.9375 0-1.601-.252-1.9907-.7559-.3897-.5039-.5845-1.3799-.5845-2.628V.6144l1.459-.088v9.6856c0 .3985.0044.7178.0132.958.0088.2403.0307.4761.0659.7075.0352.2315.082.4058.1406.523.0586.1172.1436.2241.255.3208.1112.0967.2445.1611.3998.1934.1553.0322.3472.0483.5757.0483.1875 0 .5566-.0352 1.1074-.1055l.0791 1.169c-.6035.0996-1.1103.1494-1.5205.1494Zm5.1943-1.1602c.6973 0 1.311-.1919 1.8414-.5757.5302-.3837.8715-.9008 1.0239-1.5512v-1.626c-.0293 0-.2066.0146-.5318.044-.3252.0292-.5376.0468-.6372.0527-1.2714.1113-2.1577.3193-2.6587.624-.501.3047-.7514.794-.7514 1.4678 0 .5156.1523.9052.457 1.169.3047.2636.7236.3954 1.2568.3954Zm3.1905.9844a28.7633 28.7633 0 0 1-.255-1.2129c-.5331.5332-1.034.9024-1.5028 1.1074-.4688.2051-1.0196.3076-1.6524.3076-.9023 0-1.6274-.2358-2.1753-.7075-.5478-.4717-.8217-1.1499-.8217-2.0346 0-.9844.3735-1.714 1.1206-2.1885.747-.4746 1.8237-.7705 3.23-.8877.1933-.0176.4848-.0425.8744-.0747.3897-.0322.6812-.0571.8746-.0747v-.8526c0-.6797-.1582-1.1836-.4746-1.5117-.3165-.3281-.8145-.4922-1.4942-.4922-.9492 0-1.9072.2344-2.874.7032-.0293-.0704-.1055-.274-.2285-.6109-.123-.3369-.1875-.5112-.1934-.523.4277-.2402.936-.432 1.525-.5756a7.5615 7.5615 0 0 1 1.7973-.2153c1.2011 0 2.0669.2622 2.5971.7866.5303.5244.7955 1.4165.7955 2.6762V14h-1.1426Zm5.4053-9.6416V14h-1.4766V4.3584h1.4766Zm0-3.5068v1.7402h-1.4766V.8516h1.4766Zm7.084 3.419c.2636 0 .5038.0175.7206.0526l-.0527 1.3536c-.2695-.047-.5039-.0704-.7031-.0704-.8203 0-1.4868.2857-1.9995.857-.5127.5713-.769 1.2788-.769 2.1225V14h-1.4678c-.006-5.918-.0088-9.1318-.0088-9.6416h1.2216l.1407 1.7314c.334-.5449.7588-.9843 1.2744-1.3183.5156-.334 1.0635-.501 1.6435-.501Zm7.787 1.872c-.4277-.5156-1.0166-.7735-1.7666-.7735s-1.3623.2652-1.8369.7955c-.4746.5302-.7529 1.2553-.835 2.1752h5.089c0-.955-.2169-1.6875-.6505-2.1972Zm-1.4765 8.0595c-1.4004 0-2.5034-.4453-3.3091-1.3359-.8057-.8906-1.2085-2.1094-1.2085-3.6562 0-1.4942.3897-2.7056 1.169-3.6343.7792-.9287 1.8046-1.4019 3.0761-1.4195 1.1953 0 2.143.4087 2.8433 1.2261.7002.8174 1.0503 1.9087 1.0503 3.274 0 .0703-.0015.1992-.0044.3867-.003.1875-.0044.3222-.0044.4043h-6.6182c.0176 1.0957.3003 1.9497.8482 2.562.5478.6123 1.2846.9184 2.2104.9184 1.0195 0 2.042-.2695 3.0674-.8086l.2285 1.1866c-.9785.5976-2.0947.8964-3.3486.8964ZM267.0186 39.9365c.9668 0 1.686-.3105 2.1577-.9316.4716-.6211.7075-1.5088.7075-2.6631 0-1.3008-.227-2.2808-.6812-2.94-.454-.6591-1.188-.9887-2.2016-.9887-.4512 0-.8496.0967-1.1953.29-.3457.1934-.624.463-.835.8086-.211.3457-.3706.7427-.479 1.191-.1084.4482-.1626.9389-.1626 1.4721 0 .75.0923 1.4004.2769 1.9512.1845.5508.4819.9902.892 1.3183.4102.3282.917.4922 1.5206.4922Zm2.8916-.334c-.3164.4864-.7383.873-1.2657 1.1602-.5273.2871-1.1162.4307-1.7666.4307-1.2715 0-2.2675-.4527-2.9883-1.358-.7207-.9052-1.081-2.1372-1.081-3.6958 0-1.4882.3662-2.6909 1.0986-3.6079.7324-.917 1.7139-1.3755 2.9444-1.3755.6386 0 1.2407.1392 1.8061.4175.5654.2784.9888.6519 1.27 1.1206l-.0263-.835v-4.245l1.4502-.088V41h-1.248l-.1934-1.3975Zm9.5449-6.46c-.4278-.5155-1.0166-.7734-1.7666-.7734s-1.3623.2652-1.837.7955c-.4745.5302-.7529 1.2553-.8349 2.1752h5.0889c0-.955-.2168-1.6875-.6504-2.1972Zm-1.4766 8.0596c-1.4004 0-2.5034-.4453-3.309-1.3359-.8057-.8906-1.2086-2.1094-1.2086-3.6562 0-1.4942.3897-2.7056 1.169-3.6343.7793-.9287 1.8047-1.4019 3.0762-1.4194 1.1953 0 2.143.4086 2.8432 1.226.7002.8174 1.0503 1.9087 1.0503 3.274 0 .0703-.0015.1992-.0044.3867-.003.1875-.0044.3222-.0044.4043h-6.6181c.0175 1.0957.3002 1.9497.8481 2.562.5479.6123 1.2847.9184 2.2104.9184 1.0196 0 2.042-.2695 3.0674-.8086l.2285 1.1866c-.9785.5976-2.0947.8964-3.3486.8964Zm8.5342 0c-.6563 0-1.2612-.0703-1.815-.2109-.5537-.1406-1.0034-.3223-1.349-.545l.1845-1.2392c.9785.5215 1.9395.7823 2.8828.7823 1.4297 0 2.165-.504 2.206-1.5118 0-.4277-.1523-.7646-.457-1.0107-.3046-.2461-.9023-.5215-1.793-.8262l-.7294-.2549c-.8438-.2812-1.4458-.6298-1.8062-1.0459-.3603-.416-.5434-.9345-.5493-1.5556 0-.7559.3032-1.3828.9097-1.8809.6064-.498 1.437-.747 2.4917-.747 1.0898 0 2.083.2109 2.9795.6328l-.4307 1.125c-.9082-.375-1.7578-.5625-2.5488-.5625-.6153 0-1.0972.1215-1.4458.3647-.3487.2432-.523.5845-.523 1.024 0 .375.126.662.378.8613.252.1992.7558.4277 1.5117.6855.1933.0703.4365.1524.7295.2461.9726.3164 1.6611.69 2.0654 1.1206.4043.4307.6064 1.0122.6064 1.7446-.0117.8907-.331 1.5806-.958 2.0699-.627.4892-1.4736.7338-2.54.7338ZM298.0879 41h-1.5557V27.8516h4.2364c.6445 0 1.2275.0673 1.749.2021.5215.1348.9844.3399 1.3886.6152.4043.2754.7178.6446.9405 1.1075.2226.4629.334 1.002.334 1.6172 0 .5097-.047.9653-.1407 1.3667a3.5293 3.5293 0 0 1-.4834 1.1293c-.2285.3516-.5273.6431-.8964.8746-.3692.2314-.8423.413-1.4195.5449-.5771.1318-1.2466.1977-2.0083.1977-.6035 0-1.3183-.038-2.1445-.1142V41Zm2.294-6.8379c.5742 0 1.0663-.0557 1.4765-.167.4102-.1113.7251-.249.9448-.413.2197-.1641.3926-.378.5186-.6417.126-.2636.2036-.5053.2329-.725.0293-.2198.044-.485.044-.7955 0-.7441-.2506-1.292-.7515-1.6435-.501-.3516-1.1822-.5274-2.0435-.5274h-2.7158v4.8955c1.1309.0117 1.8955.0176 2.294.0176Zm7.3827 2.039c0 1.1427.2535 2.0582.7603 2.7467.5068.6884 1.2466 1.0327 2.2192 1.0327.961 0 1.686-.3428 2.1753-1.0284.4893-.6855.734-1.6084.734-2.7685 0-1.1777-.2418-2.105-.7252-2.7817-.4834-.6768-1.2202-1.0152-2.2104-1.0152-.961 0-1.6934.3457-2.1973 1.0371-.5039.6914-.7559 1.6172-.7559 2.7774Zm7.4092-.0263c0 1.4941-.3984 2.7056-1.1953 3.6343-.7969.9287-1.8984 1.393-3.3047 1.393-1.3535 0-2.4301-.4687-3.23-1.4062-.7998-.9375-1.1997-2.1416-1.1997-3.6123 0-1.5.4014-2.7129 1.2041-3.6387.8028-.9258 1.9043-1.3886 3.3047-1.3886 1.377 0 2.458.4643 3.2432 1.393.7851.9287 1.1777 2.1372 1.1777 3.6255Zm6.3985-4.9043c.2636 0 .5039.0176.7207.0527l-.0528 1.3536c-.2695-.047-.5039-.0704-.703-.0704-.8204 0-1.487.2857-1.9996.857-.5127.5713-.769 1.2788-.769 2.1225V41h-1.4678c-.0059-5.918-.0088-9.1318-.0088-9.6416h1.2217l.1406 1.7314c.334-.5449.7588-.9843 1.2744-1.3183.5156-.334 1.0635-.501 1.6436-.501Zm5.3086 9.9053c-.9493 0-1.623-.2315-2.0215-.6944-.3985-.4628-.6094-1.21-.6328-2.2412v-5.792h-1.4327l.0616-.9668 1.3623-.123.501-2.206.9667-.0352v2.2412h2.6807v1.0898h-2.6807v5.5284c0 .7324.1114 1.248.334 1.5468.2227.2989.6035.4483 1.1426.4483.1934 0 .6123-.0469 1.2568-.1406l.0616 1.1601c-.6973.123-1.2305.1846-1.5996.1846Zm5.9502-1.1602c.6972 0 1.311-.1919 1.8413-.5757.5302-.3837.8715-.9008 1.0239-1.5512v-1.626c-.0293 0-.2066.0146-.5317.044-.3252.0292-.5376.0468-.6373.0527-1.2714.1113-2.1577.3193-2.6586.624-.501.3047-.7515.794-.7515 1.4678 0 .5156.1523.9052.457 1.169.3047.2636.7237.3954 1.2569.3954Zm3.1904.9844a28.7618 28.7618 0 0 1-.2549-1.2129c-.5332.5332-1.0342.9024-1.503 1.1074-.4687.2051-1.0195.3076-1.6523.3076-.9023 0-1.6274-.2358-2.1753-.7075-.5478-.4717-.8217-1.1499-.8217-2.0346 0-.9844.3735-1.714 1.1206-2.1885.747-.4746 1.8237-.7705 3.23-.8877.1933-.0176.4848-.0425.8745-.0747.3896-.0322.6811-.0571.8745-.0747v-.8526c0-.6797-.1582-1.1836-.4746-1.5117-.3164-.3281-.8145-.4922-1.4942-.4922-.9492 0-1.9072.2344-2.874.7032-.0293-.0704-.1055-.274-.2285-.6109-.123-.3369-.1875-.5112-.1934-.523.4278-.2402.936-.432 1.525-.5756a7.5615 7.5615 0 0 1 1.7973-.2154c1.2012 0 2.0669.2623 2.5972.7867.5302.5244.7954 1.4165.7954 2.6762V41h-1.1426Zm7.418-1.2568c.498 0 .9345-.088 1.3095-.2637.375-.1758.668-.419.879-.7295.2109-.3105.3676-.6563.4701-1.0371.1026-.3809.1539-.7969.1539-1.248v-.712c0-.4687-.0528-.9008-.1583-1.2964-.1054-.3955-.268-.75-.4877-1.0634-.2198-.3135-.5127-.5581-.879-.734-.3662-.1757-.7924-.2636-1.2788-.2636-.4043 0-.772.0762-1.103.2285-.331.1524-.6035.353-.8174.602-.2138.2491-.3955.5391-.5449.8702-.1494.331-.2563.6665-.3208 1.0063a5.5066 5.5066 0 0 0-.0967 1.0284c0 .3398.0352.6767.1055 1.0107.0703.334.1816.6592.334.9756.1523.3164.3369.5932.5537.8306.2168.2373.4878.4292.813.5756.3252.1465.6811.2198 1.0679.2198Zm-2.2588 5.669-.1319-1.3272h1.793c.498 0 .9316-.0352 1.3008-.1055.3691-.0703.6767-.186.9228-.3472.2461-.1611.4453-.3398.5977-.5361.1523-.1963.268-.4512.3472-.7647a5.8443 5.8443 0 0 0 .1582-.9316c.0263-.3076.0395-.684.0395-1.1294v-.8525c-.3516.5039-.7588.892-1.2217 1.1645-.4629.2725-1.0517.4087-1.7666.4087-.5508 0-1.059-.0952-1.5249-.2856-.4658-.1905-.8584-.4439-1.1777-.7603-.3193-.3164-.5918-.6826-.8174-1.0986-.2256-.416-.3896-.8467-.4922-1.292a5.9743 5.9743 0 0 1-.1538-1.3447c0-.7032.0864-1.3536.2593-1.9512.1728-.5977.4292-1.1309.769-1.5996.3399-.4688.7867-.8364 1.3404-1.103.5537-.2666 1.188-.4 1.9028-.4.6328 0 1.185.1216 1.6567.3648.4717.2432.895.6167 1.27 1.1206v-1.2832h1.4327v8.9473c0 .4101-.0103.769-.0308 1.0766s-.0703.649-.1494 1.024-.186.6972-.3208.9667c-.1348.2696-.3237.5406-.5669.813-.2432.2725-.5332.4922-.8701.6592-.337.167-.7544.3032-1.2525.4087-.498.1055-1.0605.1582-1.6875.1582h-1.626Zm14.502-12.2696c-.4278-.5156-1.0167-.7735-1.7667-.7735s-1.3623.2652-1.8369.7955c-.4746.5302-.753 1.2553-.835 2.1752h5.089c0-.955-.2169-1.6875-.6505-2.1972Zm-1.4766 8.0595c-1.4004 0-2.5035-.4453-3.3091-1.3359-.8057-.8906-1.2085-2.1094-1.2085-3.6562 0-1.4942.3896-2.7056 1.169-3.6343.7792-.9287 1.8046-1.4019 3.076-1.4194 1.1954 0 2.1432.4086 2.8434 1.226.7002.8174 1.0502 1.9087 1.0502 3.274 0 .0703-.0014.1992-.0043.3867-.003.1875-.0044.3222-.0044.4043h-6.6182c.0176 1.0957.3003 1.9497.8481 2.562.5479.6123 1.2847.9184 2.2105.9184 1.0195 0 2.042-.2695 3.0674-.8086l.2285 1.1866c-.9785.5976-2.0947.8964-3.3486.8964Zm8.5341 0c-.6562 0-1.2612-.0703-1.815-.2109-.5536-.1406-1.0033-.3223-1.349-.545l.1845-1.2392c.9786.5215 1.9395.7823 2.8829.7823 1.4296 0 2.165-.504 2.206-1.5118 0-.4277-.1523-.7646-.457-1.0107-.3047-.2461-.9024-.5215-1.793-.8262l-.7295-.2549c-.8437-.2812-1.4458-.6298-1.8061-1.0459-.3604-.416-.5435-.9345-.5494-1.5556 0-.7559.3033-1.3828.9097-1.8809.6065-.498 1.437-.747 2.4917-.747 1.0899 0 2.083.2109 2.9795.6328l-.4307 1.125c-.9082-.375-1.7578-.5625-2.5488-.5625-.6152 0-1.0972.1215-1.4458.3647-.3486.2432-.523.5845-.523 1.024 0 .375.126.662.378.8613.252.1992.7559.4277 1.5117.6855.1934.0703.4365.1524.7295.2461.9727.3164 1.6611.69 2.0654 1.1206.4043.4307.6065 1.0122.6065 1.7446-.0117.8907-.331 1.5806-.958 2.0699-.627.4892-1.4737.7338-2.54.7338Zm5.001-4.5703v-1.292h4.3945v1.292h-4.3945Zm10.169 3.3047c.9668 0 1.686-.3105 2.1577-.9316.4717-.6211.7075-1.5088.7075-2.6631 0-1.3008-.227-2.2808-.6812-2.94-.454-.6591-1.188-.9887-2.2016-.9887-.4512 0-.8496.0967-1.1953.29-.3457.1934-.624.463-.835.8086-.211.3457-.3706.7427-.479 1.191-.1084.4482-.1626.9389-.1626 1.4721 0 .75.0923 1.4004.2769 1.9512.1845.5508.4819.9902.892 1.3183.4102.3282.917.4922 1.5206.4922Zm2.8916-.334c-.3164.4864-.7383.873-1.2657 1.1602-.5273.2871-1.1162.4307-1.7666.4307-1.2715 0-2.2675-.4527-2.9882-1.358-.7208-.9052-1.0811-2.1372-1.0811-3.6958 0-1.4882.3662-2.6909 1.0986-3.6079.7324-.917 1.7139-1.3755 2.9444-1.3755.6386 0 1.2407.1392 1.8061.4175.5654.2784.9888.6519 1.27 1.1206l-.0263-.835v-4.245l1.4502-.088V41h-1.248l-.1934-1.3975Zm9.5449-6.46c-.4278-.5155-1.0166-.7734-1.7666-.7734s-1.3623.2652-1.837.7955c-.4745.5302-.7529 1.2553-.8349 2.1752h5.0889c0-.955-.2168-1.6875-.6504-2.1972Zm-1.4766 8.0596c-1.4004 0-2.5034-.4453-3.309-1.3359-.8057-.8906-1.2086-2.1094-1.2086-3.6562 0-1.4942.3897-2.7056 1.169-3.6343.7793-.9287 1.8047-1.4019 3.0762-1.4194 1.1953 0 2.143.4086 2.8432 1.226.7002.8174 1.0503 1.9087 1.0503 3.274 0 .0703-.0015.1992-.0044.3867a29.398 29.398 0 0 0-.0044.4043h-6.6181c.0175 1.0957.3003 1.9497.8481 2.562.5479.6123 1.2847.9184 2.2105.9184 1.0195 0 2.042-.2695 3.0673-.8086l.2285 1.1866c-.9785.5976-2.0947.8964-3.3486.8964Zm5.1592-4.5703v-1.292h4.3945v1.292h-4.3945Zm9 4.544c-.9375 0-1.601-.252-1.9907-.7559-.3897-.5039-.5845-1.3799-.5845-2.628V27.6144l1.459-.088v9.6856c0 .3985.0044.7178.0132.958.0088.2403.0307.4761.0659.7075.0351.2315.082.4058.1406.523.0586.1172.1436.2241.2549.3208.1113.0967.2446.1611.3999.1934.1553.0322.3472.0483.5757.0483.1875 0 .5566-.0352 1.1074-.1055l.0791 1.169c-.6035.0996-1.1103.1494-1.5205.1494Zm3.3398-9.8613h-1.0195l.8174-4.1485h1.3799l-1.1778 4.1485Zm4.8428 3.1904c0 1.6699.3838 2.981 1.1514 3.933.7676.9522 1.9013 1.4283 3.4013 1.4283s2.6294-.4746 3.3882-1.4238c.7588-.9492 1.1382-2.2617 1.1382-3.9375 0-1.711-.3823-3.0381-1.147-3.9815-.7646-.9433-1.8881-1.415-3.3706-1.415-1.4824 0-2.6132.4717-3.3925 1.415-.7793.9434-1.169 2.2705-1.169 3.9815Zm10.705 0c0 .9902-.1361 1.8955-.4086 2.7158-.2725.8203-.665 1.525-1.1777 2.1138-.5127.5888-1.1587 1.0459-1.938 1.371-.7793.3253-1.6553.4879-2.628.4879-1.3125 0-2.436-.2798-3.3706-.8394-.9345-.5596-1.6347-1.3389-2.1005-2.3379-.4659-.999-.6988-2.1724-.6988-3.52 0-2.08.542-3.7207 1.626-4.9219 1.084-1.2012 2.6016-1.8017 4.5527-1.8017 1.922 0 3.4263.605 4.5132 1.8149 1.087 1.21 1.6304 2.8491 1.6304 4.9175Zm1.9073 3.2783v-6.4248h1.4766v6.4424c0 .4219.06.7793.1802 1.0722.12.293.293.52.5185.6812.2256.1611.4805.2769.7647.3472.2841.0703.6108.1054.98.1054.7617 0 1.355-.167 1.7797-.501.4248-.334.6372-.9023.6372-1.705v-6.4424h1.4766v6.4248c0 .4922-.0703.9346-.211 1.3272-.1406.3925-.3295.7192-.5668.98-.2373.2607-.523.476-.857.646a4.1701 4.1701 0 0 1-1.059.369c-.3721.0762-.772.1143-1.1998.1143-.4218 0-.8203-.038-1.1953-.1142a4.1282 4.1282 0 0 1-1.0678-.3736c-.337-.1728-.627-.3896-.8702-.6504-.2431-.2607-.435-.5874-.5756-.98-.1407-.3925-.211-.832-.211-1.3183Zm13.0781 3.3926c-.9492 0-1.623-.2315-2.0214-.6944-.3985-.4628-.6094-1.21-.6329-2.2412v-5.792h-1.4326l.0616-.9668 1.3623-.123.501-2.206.9667-.0352v2.2412h2.6807v1.0898h-2.6807v5.5284c0 .7324.1114 1.248.334 1.5468.2227.2989.6035.4483 1.1426.4483.1934 0 .6123-.0469 1.2568-.1406l.0616 1.1601c-.6973.123-1.2305.1846-1.5997.1846Zm5.9502-1.1602c.6973 0 1.311-.1919 1.8413-.5757.5303-.3837.8716-.9008 1.024-1.5512v-1.626c-.0293 0-.2066.0146-.5318.044-.3252.0292-.5376.0468-.6372.0527-1.2715.1113-2.1577.3193-2.6587.624-.501.3047-.7514.794-.7514 1.4678 0 .5156.1523.9052.457 1.169.3047.2636.7236.3954 1.2568.3954ZM446.043 41a28.7602 28.7602 0 0 1-.255-1.2129c-.5331.5332-1.034.9024-1.5028 1.1074-.4688.2051-1.0196.3076-1.6524.3076-.9023 0-1.6274-.2358-2.1753-.7075-.5478-.4717-.8218-1.1499-.8218-2.0346 0-.9844.3736-1.714 1.1206-2.1885.7471-.4746 1.8238-.7705 3.23-.8877.1934-.0176.4849-.0425.8745-.0747.3897-.0322.6812-.0571.8746-.0747v-.8526c0-.6797-.1583-1.1836-.4747-1.5117-.3164-.3281-.8144-.4922-1.4941-.4922-.9492 0-1.9072.2344-2.874.7032-.0293-.0704-.1055-.274-.2285-.6109-.123-.3369-.1875-.5112-.1934-.523.4277-.2402.936-.432 1.5249-.5756a7.5615 7.5615 0 0 1 1.7974-.2154c1.2011 0 2.0669.2623 2.5971.7867.5303.5244.7954 1.4165.7954 2.6762V41h-1.1425Zm4.746-4.7988c0 1.1425.2535 2.058.7603 2.7466.5069.6884 1.2466 1.0327 2.2193 1.0327.9609 0 1.686-.3428 2.1752-1.0284.4893-.6855.734-1.6084.734-2.7685 0-1.1777-.2418-2.105-.7252-2.7817-.4834-.6768-1.2202-1.0152-2.2104-1.0152-.961 0-1.6934.3457-2.1973 1.0371-.5039.6914-.7558 1.6172-.7558 2.7774Zm7.4092-.0264c0 1.4941-.3984 2.7056-1.1953 3.6343-.7968.9287-1.8984 1.393-3.3047 1.393-1.3535 0-2.4301-.4687-3.23-1.4062-.7997-.9375-1.1996-2.1416-1.1996-3.6123 0-1.5.4013-2.7129 1.204-3.6387.8028-.9258 1.9044-1.3886 3.3047-1.3886 1.377 0 2.458.4643 3.2432 1.393.7852.9287 1.1777 2.1372 1.1777 3.6255Zm1.7403 1.6084v-6.4248h1.4765v6.4424c0 .4219.0601.7793.1802 1.0722.1201.293.293.52.5186.6812.2256.1611.4804.2769.7646.3472.2842.0703.6109.1054.98.1054.7617 0 1.355-.167 1.7798-.501.4248-.334.6372-.9023.6372-1.705v-6.4424h1.4766v6.4248c0 .4922-.0704.9346-.211 1.3272-.1406.3925-.3296.7192-.5669.98-.2373.2607-.523.476-.857.646a4.1688 4.1688 0 0 1-1.059.369c-.372.0762-.772.1143-1.1997.1143-.4219 0-.8203-.038-1.1953-.1142a4.1282 4.1282 0 0 1-1.0679-.3736c-.3369-.1728-.627-.3896-.8701-.6504-.2432-.2607-.435-.5874-.5757-.98-.1406-.3925-.211-.832-.211-1.3183Zm12.788 2.2324c.6973 0 1.3111-.1919 1.8414-.5757.5302-.3837.8716-.9008 1.0239-1.5512v-1.626c-.0293 0-.2065.0146-.5317.044-.3252.0292-.5376.0468-.6372.0527-1.2715.1113-2.1578.3193-2.6587.624-.501.3047-.7515.794-.7515 1.4678 0 .5156.1523.9052.457 1.169.3047.2636.7237.3954 1.2569.3954ZM475.917 41a28.7633 28.7633 0 0 1-.2549-1.2129c-.5332.5332-1.0342.9024-1.503 1.1074-.4687.2051-1.0195.3076-1.6523.3076-.9023 0-1.6274-.2358-2.1753-.7075-.5478-.4717-.8217-1.1499-.8217-2.0346 0-.9844.3735-1.714 1.1206-2.1885.747-.4746 1.8237-.7705 3.23-.8877.1933-.0176.4848-.0425.8745-.0747.3896-.0322.6811-.0571.8745-.0747v-.8526c0-.6797-.1582-1.1836-.4746-1.5117-.3164-.3281-.8145-.4922-1.4942-.4922-.9492 0-1.9072.2344-2.874.7032-.0293-.0704-.1055-.274-.2285-.6109-.123-.3369-.1875-.5112-.1934-.523.4278-.2402.936-.432 1.525-.5756a7.5615 7.5615 0 0 1 1.7973-.2154c1.2012 0 2.0669.2623 2.5972.7867.5302.5244.7954 1.4165.7954 2.6762V41h-1.1426Zm5.4053-9.6416V41h-1.4766v-9.6416h1.4766Zm0-3.5068v1.7402h-1.4766v-1.7402h1.4766Zm5.6338 13.3505c-.6563 0-1.2613-.0703-1.815-.2109-.5537-.1406-1.0034-.3223-1.3491-.545l.1846-1.2392c.9785.5215 1.9394.7823 2.8828.7823 1.4297 0 2.165-.504 2.206-1.5118 0-.4277-.1523-.7646-.457-1.0107-.3047-.2461-.9023-.5215-1.793-.8262l-.7295-.2549c-.8437-.2812-1.4458-.6298-1.8061-1.0459-.3604-.416-.5435-.9345-.5493-1.5556 0-.7559.3032-1.3828.9096-1.8809.6065-.498 1.437-.747 2.4917-.747 1.0899 0 2.083.2109 2.9795.6328l-.4306 1.125c-.9082-.375-1.7578-.5625-2.5489-.5625-.6152 0-1.0971.1215-1.4458.3647-.3486.2432-.523.5845-.523 1.024 0 .375.126.662.378.8613.252.1992.7559.4277 1.5117.6855.1934.0703.4366.1524.7295.2461.9727.3164 1.6612.69 2.0655 1.1206.4043.4307.6064 1.0122.6064 1.7446-.0117.8907-.331 1.5806-.958 2.0699-.627.4892-1.4736.7338-2.54.7338ZM17.064 8.223c9.005 0 16.553 6.6401 16.6458 16.6911l.0003.132.0007.2351.0003.1241.0007.243c0 5.8724-3.1306 12.1927-8.1877 14.735 5.2387 5.9908 10.1655 7.6074 15.2917 6.7685l.6415-.1046c-1.362 1.7666-3.63 2.6174-5.7736 2.876-4.5242.5447-9.757-1.7983-15.6312-7.2995-1.2415.3-2.4831.4955-3.77.4955C7.3131 43.1192 0 35.804 0 25.9445l.0006-.117.0027-.441.0006-.119C.0691 15.1334 8.0436 8.223 17.0642 8.223Zm24.798 10.5346v12.919c0 4.5814 1.658 7.4159 5.657 7.4159 3.0359 0 6.8-2.6904 6.8-6.5217l-.002-7.6685c0-2.2779.2745-4.1175-1.7468-5.3552v-.148h1.7489c1.0086 0 3.393-.0454 4.0346-.6415h.1381l.002 18.1143c0 2.2897-.2744 4.1313 1.745 5.2761v.148h-5.9197v-3.3002c-1.6561 2.7259-4.9604 3.8668-8.1778 3.8668-5.4203 0-8.4561-3.322-8.4561-10.3155v-7.6448c0-2.2779.2744-4.1175-1.745-5.3552v-.148h1.7331c1.0107 0 3.407-.0454 4.0485-.6415h.1401Zm-25.0743-6.948c-7.2816 0-11.4564 6.046-11.5432 12.4906v.7501c0 6.654 4.8281 14.4902 11.7722 14.4902 6.8987 0 11.4485-5.5781 11.4485-12.8993v-.7165c-.0612-6.8671-4.0149-14.1152-11.6775-14.1152Zm67.5758 18.2682c.1875-6.3993-4.09-11.2215-10.3432-11.2215-6.8493 0-11.4919 4.9702-11.4919 11.865 0 6.95 5.3769 12.24 13.1934 12.24 2.1614 0 4.3662-.3455 6.346-1.2317l2.2957-4.6623h-.1343c-2.118 1.8002-4.7807 2.6529-7.5441 2.6529-5.1913 0-9.1016-3.549-9.1943-9.6424h16.8727Zm-16.691-2.8918c.5526-3.1128 2.8542-5.0886 5.9334-5.0886 3.3122 0 5.4242 1.6324 5.9296 5.0886h-11.863M88.0172 8.2348c1.0975 0 3.3457-.069 4.0247-.7382h.1363v31.3728c1.2336.3455 2.5166.5942 3.7918.5942 5.0274 0 7.9014-3.5175 7.9014-8.4147 0-4.7985-2.2344-8.5094-6.8493-8.5094-1.4607 0-2.6075.3928-3.8392 1.0876l2.4693-4.224c1.05-.3948 2.1476-.5468 3.241-.5468 5.2131 0 9.6425 4.5221 9.6425 11.3044 0 7.7672-5.2584 12.7887-13.5685 12.7887-3.1088 0-6.0874-.5467-8.3455-.8922v-.152c1.5218-.6967 1.3817-2.343 1.3817-3.9773V15.1217c0-2.2897.2783-5.4953-1.6956-6.7408v-.146h1.7094m45.3696 21.8429c.1836-6.3993-4.0899-11.2215-10.347-11.2215-6.8514 0-11.492 4.9702-11.492 11.865 0 6.95 5.3769 12.24 13.1993 12.24 2.1575 0 4.3623-.3455 6.344-1.2317l2.2957-4.6623h-.1342c-2.118 1.8002-4.7847 2.6529-7.5422 2.6529-5.1953 0-9.0996-3.549-9.1963-9.6424h16.8727Zm-16.6911-2.8918c.5547-3.1128 2.8503-5.0886 5.9295-5.0886 3.3161 0 5.4302 1.6324 5.9375 5.0886h-11.867m37.255-2.647h-.1342c-1.3364-1.6422-3.5432-2.4416-5.6157-2.4416-4.455 0-7.6725 3.3872-7.6725 8.1166 0 5.7203 4.457 9.5062 9.5575 9.5062 2.349 0 4.9229-.9988 6.721-2.4437h.1343l-2.3884 4.7018c-1.9383.7856-4.0484.983-6.0716.983-7.0784 0-12.6151-4.986-12.6151-11.4505 0-8.5627 6.1782-12.6545 13.1223-12.6545 1.6542 0 3.3537.1934 4.9624.5882v5.0946m-75.3232-9.7885V9.7725c-3.0122 1.352-5.8091 3.8787-7.6784 6.3322v1.9423c4.4748-3.0141 7.6784-3.1563 7.6784-3.2964M195.6705 0v17.0778h-27.8632V0h27.8633ZM181.743.894c-.2092.379-.6652.9139-1.4271 1.881-.8883 1.1035-.7323 2.5839-.3139 3.4583.4856 1.0106.7659 1.8495.985 2.645.2643 1.0024.148 2.3033.1262 2.5335l-.0018.0266h-.7758c0-1.887-.5823-3.6615-2.0035-4.449-2.0232-1.1193-4.0168.825-3.3812 2.8403.3355 1.058.9257 1.4153 1.0915 1.4153 0 0-.2704-1.1646.5705-1.7587.7895-.5606 1.7725-.2211 2.2226.4421.4322.6376.5013 1.51.5013 1.51h-1.4527v1.0738l2.9193-.004s-.077 1.518-1.6758 1.368l.004.02c.034.1538.3071 1.1317 1.6718.5504 0 0-.077 1.2554.9396 1.8811.8269-.512.9243-1.4454.9325-1.7679l.0002-.0835a.8992.8992 0 0 0-.001-.0297c1.3683.5813 1.6418-.3966 1.6757-.5505l.004-.02c-1.6008.15-1.6797-1.3678-1.6797-1.3678l2.9252.004v-1.0739h-1.4527s.0651-.8724.4934-1.51c.458-.6632 1.433-1.0027 2.2305-.4421.6807.481.6306 1.3357.5868 1.644l-.014.0845a.8334.8334 0 0 1-.0063.0302c.1658 0 .756-.3573 1.0916-1.4153.6356-2.0153-1.36-3.9596-3.3793-2.8404-1.4251.7876-2.0094 2.5621-2.0094 4.4491h-.7659l-.004-.0266c-.026-.2302-.1428-1.5311.1284-2.5335.2132-.7955.4954-1.6344.975-2.645.4245-.8744.5804-2.3548-.3059-3.4582-.7678-.9672-1.2238-1.5021-1.4251-1.8811ZM231.6603 0v17.0778h-27.8731V0h27.8731Zm-13.9395.894c-.2093.379-.6613.9139-1.431 1.881-.8903 1.1035-.7304 2.5839-.31 3.4583.4876 1.0106.7639 1.8495.985 2.645.2643 1.0024.1465 2.3033.1256 2.5335l-.0032.0262-.7718.0004c0-1.887-.5843-3.6615-2.0055-4.449-2.0212-1.1193-4.0188.825-3.3832 2.8403.3336 1.058.9297 1.4153 1.0975 1.4153 0 0-.0025-.0106-.0064-.0302l-.014-.0846c-.0442-.3082-.095-1.163.5888-1.644.7856-.5605 1.7706-.221 2.2187.4422.4323.6376.5033 1.51.5033 1.51h-1.4528v1.0738l2.9174-.004s-.079 1.518-1.6738 1.368l.0039.02c.0332.1538.3016 1.1317 1.67.5504 0 0-.079 1.2554.9415 1.8811 1.0086-.6257.9336-1.881.9336-1.881 1.3684.5812 1.6401-.3967 1.6738-.5506l.004-.02c-1.6028.15-1.6778-1.3678-1.6778-1.3678l2.9233.004v-1.0739h-1.4587s.073-.8724.4994-1.51c.454-.6632 1.435-1.0027 2.2325-.4421.833.5941.5704 1.7587.5704 1.7587.1619 0 .756-.3573 1.0837-1.4153.6316-2.0153-1.364-3.9596-3.3832-2.8404-1.4153.7876-2.0015 2.5621-2.0015 4.4491l-.768-.0003c-.0146-.1257-.164-1.5073.1225-2.5598.2112-.7955.5014-1.6344.979-2.645.4165-.8744.5784-2.3548-.3118-3.4582-.764-.9672-1.2238-1.5021-1.4212-1.8811Zm-22.0502 24.3178v17.0744h-27.8633V25.2118h27.8633Zm-13.9277.8926c-.2092.379-.6652.9158-1.4271 1.8751-.8883 1.1094-.7323 2.5858-.3139 3.4662.4856 1.0086.7659 1.8455.985 2.641.2775 1.0525.1355 2.4308.1237 2.556l-.775.0002c0-1.8811-.5824-3.6556-2.0036-4.4452-2.0232-1.1192-4.0168.827-3.3812 2.8424.3355 1.052.9257 1.4094 1.0915 1.4094 0 0-.2704-1.1646.5705-1.7568.7895-.5586 1.7725-.221 2.2226.4441.4322.6336.5013 1.506.5013 1.506h-1.4527v1.0778l2.9193-.004s-.077 1.514-1.6758 1.372l.004.0197c.034.1526.3071 1.1225 1.6718.5467 0 0-.077 1.2515.9396 1.8772.8269-.512.9243-1.4428.9325-1.7643l.0002-.0833a.8984.8984 0 0 0-.001-.0296c1.3683.5758 1.6418-.394 1.6757-.5467l.004-.0198c-1.6008.1422-1.6797-1.3718-1.6797-1.3718l2.9252.004v-1.0778h-1.4527s.0651-.8725.4934-1.506c.458-.6653 1.433-1.0028 2.2305-.4442.8409.5922.5665 1.7568.5665 1.7568.1658 0 .756-.3573 1.0916-1.4094.6356-2.0153-1.36-3.9616-3.3793-2.8424-1.4251.7896-2.0094 2.564-2.0094 4.4452h-.7659c.003.0305-.0041-.0186-.014-.126l-.0126-.1554c-.0346-.4818-.066-1.4729.151-2.2748.2132-.7955.4954-1.6324.975-2.641.4245-.8804.5804-2.3568-.3059-3.4662-.7678-.9593-1.2238-1.4962-1.4251-1.8751Zm49.9174-.8926v17.0744h-27.8731V25.2118h27.8731Zm-13.9395.8926c-.2093.379-.6613.9158-1.431 1.8751-.8903 1.1094-.7304 2.5858-.31 3.4662.4876 1.0086.7639 1.8455.985 2.641.2775 1.0525.1338 2.4308.1232 2.556h-.0008l-.7718.0002c0-1.8811-.5843-3.6556-2.0055-4.4452-2.0212-1.1192-4.0188.827-3.3832 2.8424.3336 1.052.9297 1.4094 1.0975 1.4094 0 0-.2764-1.1646.5684-1.7568.7856-.5586 1.7706-.221 2.2187.4441.4323.6336.5033 1.506.5033 1.506h-1.4528v1.0778l2.9174-.004s-.079 1.514-1.6738 1.372l.0039.0197c.0332.1526.3016 1.1225 1.67.5467 0 0-.079 1.2515.9415 1.8772 1.0086-.6257.9336-1.8772.9336-1.8772 1.3684.5758 1.6401-.394 1.6738-.5467l.004-.0198c-1.6028.1422-1.6778-1.3718-1.6778-1.3718l2.9233.004v-1.0778h-1.4587s.073-.8725.4994-1.506c.454-.6653 1.435-1.0028 2.2325-.4442.833.5922.5704 1.7568.5704 1.7568.1619 0 .756-.3573 1.0837-1.4094.6316-2.0153-1.364-3.9616-3.3832-2.8424-1.4153.7896-2.0015 2.564-2.0015 4.4452l-.7681-.0001c-.0019-.018-.0067-.0615-.0127-.126l-.0128-.1553c-.0354-.4818-.0702-1.4729.1481-2.2748.2112-.7955.5014-1.6324.979-2.641.4165-.8804.5784-2.3568-.3118-3.4662-.764-.9593-1.2238-1.4962-1.4212-1.8751Z" fill="#FFF"/></svg>